<svg xmlns="http://www.w3.org/2000/svg" version="1.1" xmlns:xlink="http://www.w3.org/1999/xlink" xmlns:svgjs="http://svgjs.dev/svgjs" width="1500" height="613" viewBox="0 0 1500 613"><g transform="matrix(1,0,0,1,-0.9090909090909918,-0.3094657151684146)"><svg viewBox="0 0 396 162" data-background-color="#ffffff" preserveAspectRatio="xMidYMid meet" height="613" width="1500" xmlns="http://www.w3.org/2000/svg" xmlns:xlink="http://www.w3.org/1999/xlink"><g id="tight-bounds" transform="matrix(1,0,0,1,0.2400000000000091,0.08178376159426648)"><svg viewBox="0 0 395.52 161.83643247681147" height="161.83643247681147" width="395.52"><g><svg viewBox="0 0 397.4976 162.64561463919551" height="161.83643247681147" width="395.52"><g><rect width="397.4976" height="4.981620359865921" x="0" y="89.38287982122904" fill="#61777f" opacity="1" stroke-width="0" stroke="transparent" fill-opacity="1" class="rect-qz-0" data-fill-palette-color="secondary" rx="1%" id="qz-0" data-palette-color="#61777f"></rect></g><g transform="matrix(1,0,0,1,0.9887999999999693,107.40539117550837)"><svg viewBox="0 0 395.52000000000004 55.240223463687144" height="55.240223463687144" width="395.52000000000004"><g id="textblocktransform"><svg viewBox="0 0 395.52000000000004 55.240223463687144" height="55.240223463687144" width="395.52000000000004" id="textblock"><g><svg viewBox="0 0 395.52000000000004 55.240223463687144" height="55.240223463687144" width="395.52000000000004"><g transform="matrix(1,0,0,1,0,0)"><svg width="395.52000000000004" viewBox="1.5 -39 286.38 40" height="55.240223463687144" data-palette-color="#000000"><path d="M27.05-0.38Q25.05 0.1 22.98 0.28 20.9 0.45 18.93 0.45 16.95 0.45 15.88 0.35 14.8 0.25 13.05-0.15 11.3-0.55 9.85-1.25 8.4-1.95 6.78-3.3 5.15-4.65 4.05-6.5L4.05-6.5Q1.5-10.8 1.5-17.6L1.5-17.6Q1.5-22.15 2.93-25.65 4.35-29.15 6.38-31.05 8.4-32.95 11-34.1L11-34.1Q15.2-36 19.45-36L19.45-36Q25.55-36 28.2-35L28.2-35Q29.4-34.55 30.35-33.6 31.3-32.65 31.3-30.85 31.3-29.05 30.43-26.3 29.55-23.55 27.9-23.55L27.9-23.55Q27.4-23.55 24.2-24.35 21-25.15 19.85-25.15L19.85-25.15Q18.1-25.15 16.88-23.2 15.65-21.25 15.65-17.65 15.65-14.05 16.73-12.05 17.8-10.05 19.55-10.05L19.55-10.05Q20.8-10.05 24.08-11.08 27.35-12.1 27.9-12.1L27.9-12.1Q29.45-12.1 30.33-9.25 31.2-6.4 31.2-4.65 31.2-2.9 30.13-1.88 29.05-0.85 27.05-0.38ZM48.05-15.8L48.05-15.8 48.05-1.2Q48.05-0.65 45.22-0.33 42.4 0 39.37 0 36.35 0 35.45-0.28 34.55-0.55 34.55-1.2L34.55-1.2 34.55-25.85Q34.55-26.8 37.32-27.9 40.1-29 43.37-29 46.65-29 47.05-27.2L47.05-27.2 47.55-24.9 47.9-24.9Q48.6-26.8 51.25-28.13 53.9-29.45 56.55-29.45 59.2-29.45 60.27-28.6 61.35-27.75 61.35-26.43 61.35-25.1 61.15-23.05 60.95-21 60.17-18.6 59.4-16.2 58.15-16.2L58.15-16.2Q57.65-16.2 55-16.95 52.35-17.7 50.62-17.7 48.9-17.7 48.47-17.2 48.05-16.7 48.05-15.8ZM77.6-25.85L77.6-25.85 77.6-1.2Q77.6-0.65 74.72-0.33 71.85 0 68.82 0 65.8 0 64.92-0.28 64.05-0.55 64.05-1.2L64.05-1.2 64.05-24.95Q64.05-26.05 66.87-27.13 69.7-28.2 73.05-28.2L73.05-28.2Q77.6-28.2 77.6-25.85ZM70.8-39L70.8-39Q74.1-39 75.97-38.02 77.85-37.05 77.85-34.5L77.85-34.5Q77.85-30 70.85-30 63.85-30 63.85-34.5 63.85-39 70.8-39ZM126.89-16.5L126.89-16.5 126.89-1.2Q126.89-0.65 124.07-0.33 121.24 0 118.22 0 115.19 0 114.29-0.28 113.39-0.55 113.39-1.2L113.39-1.2 113.39-15.05Q113.39-22.2 111.94-22.2L111.94-22.2Q111.59-22.2 111.24-21.9 110.89-21.6 110.89-20.85L110.89-20.85 110.89-1.2Q110.89-0.65 108.07-0.33 105.24 0 102.19 0 99.14 0 98.27-0.28 97.39-0.55 97.39-1.2L97.39-1.2 97.39-15.05Q97.39-20.6 96.69-21.7L96.69-21.7Q96.34-22.2 95.79-22.2L95.79-22.2Q94.84-22.2 94.84-20.85L94.84-20.85 94.84-1.2Q94.84-0.65 91.99-0.33 89.14 0 86.12 0 83.09 0 82.22-0.28 81.34-0.55 81.34-1.2L81.34-1.2 81.34-25.85Q81.34-26.9 84.22-27.95 87.09-29 90.29-29 93.49-29 93.89-27.15L93.89-27.15 94.34-24.95 94.69-24.95Q96.14-27.8 99.49-29L99.49-29Q100.89-29.45 103.09-29.45L103.09-29.45Q107.49-29.45 109.49-24.95L109.49-24.95Q110.14-26.45 112.74-27.95 115.34-29.45 118.49-29.45L118.49-29.45Q123.44-29.45 125.17-26.38 126.89-23.3 126.89-16.5ZM145.19-11.3L143.54-11.3Q143.54-8.05 146.64-8.05L146.64-8.05Q148.44-8.05 151.34-9.28 154.24-10.5 154.39-10.5L154.39-10.5Q155.34-10.5 156.89-7.65 158.44-4.8 158.44-3.45L158.44-3.45Q158.44-1.5 154.44-0.5 150.44 0.5 146.62 0.5 142.79 0.5 140.22-0.1 137.64-0.7 136.02-1.63 134.39-2.55 133.17-3.9 131.94-5.25 131.34-6.48 130.74-7.7 130.39-9.2L130.39-9.2Q129.89-11.4 129.89-13.75L129.89-13.75Q129.89-22.85 134.64-26.3L134.64-26.3Q136.99-28.05 139.89-28.75 142.79-29.45 146.74-29.45L146.74-29.45Q159.39-29.45 159.39-20.65L159.39-20.65Q159.39-11.3 145.19-11.3L145.19-11.3ZM143.44-18.6L143.44-18.6 143.44-15.3Q144.89-15.3 145.82-16.45 146.74-17.6 146.74-19.25L146.74-19.25Q146.74-22.25 145.19-22.25L145.19-22.25Q143.44-22.25 143.44-18.6ZM185.19 0L166.84 0Q164.34 0 163.49-0.28 162.64-0.55 162.64-1.2L162.64-1.2 162.64-32.3Q162.64-33.4 165.54-34.48 168.44-35.55 172.04-35.55L172.04-35.55Q175.24-35.55 176.24-34.2L176.24-34.2Q176.59-33.7 176.59-33.2L176.59-33.2 176.59-11.05Q182.69-11.45 185.79-11.45L185.79-11.45Q186.84-11.45 186.84-8.13 186.84-4.8 186.39-2.4 185.94 0 185.19 0L185.19 0ZM204.99 0.45L204.99 0.45Q201.24 0.45 198.54-0.2 195.84-0.85 193.64-2.5L193.64-2.5Q189.09-5.8 189.09-14.8L189.09-14.8Q189.09-22.8 193.74-26.25L193.74-26.25Q198.09-29.45 204.99-29.45L204.99-29.45Q207.94-29.45 210.04-29.18 212.14-28.9 214.31-28 216.49-27.1 217.81-25.55 219.14-24 219.99-21.28 220.84-18.55 220.84-14.8L220.84-14.8Q220.84-7.2 216.54-3.38 212.24 0.45 204.99 0.45ZM203.24-9.3Q203.59-7.5 203.96-7.15 204.34-6.8 204.96-6.8 205.59-6.8 205.96-7.15 206.34-7.5 206.66-9.3 206.99-11.1 206.99-13.83 206.99-16.55 206.86-18.03 206.74-19.5 206.56-20.3 206.39-21.1 206.09-21.55L206.09-21.55Q205.64-22.2 205.01-22.2 204.39-22.2 203.99-21.83 203.59-21.45 203.24-19.63 202.89-17.8 202.89-14.45 202.89-11.1 203.24-9.3ZM239.23 0.45L239.23 0.45Q235.48 0.45 232.78-0.2 230.08-0.85 227.88-2.5L227.88-2.5Q223.33-5.8 223.33-14.8L223.33-14.8Q223.33-22.8 227.98-26.25L227.98-26.25Q232.33-29.45 239.23-29.45L239.23-29.45Q242.18-29.45 244.28-29.18 246.38-28.9 248.56-28 250.73-27.1 252.06-25.55 253.38-24 254.23-21.28 255.08-18.55 255.08-14.8L255.08-14.8Q255.08-7.2 250.78-3.38 246.48 0.45 239.23 0.45ZM237.48-9.3Q237.83-7.5 238.21-7.15 238.58-6.8 239.21-6.8 239.83-6.8 240.21-7.15 240.58-7.5 240.91-9.3 241.23-11.1 241.23-13.83 241.23-16.55 241.11-18.03 240.98-19.5 240.81-20.3 240.63-21.1 240.33-21.55L240.33-21.55Q239.88-22.2 239.26-22.2 238.63-22.2 238.23-21.83 237.83-21.45 237.48-19.63 237.13-17.8 237.13-14.45 237.13-11.1 237.48-9.3ZM271.58-1.2Q271.58-0.65 268.78-0.33 265.98 0 262.93 0 259.88 0 258.98-0.28 258.08-0.55 258.08-1.2L258.08-1.2 258.08-35.8Q258.08-36.9 260.91-37.95 263.73-39 266.98-39L266.98-39Q271.58-39 271.58-36.7L271.58-36.7 271.58-18 272.23-18Q274.63-29.45 275.78-29.45L275.78-29.45Q278.68-29.45 282.78-28.1 286.88-26.75 286.88-25.1L286.88-25.1Q286.88-23.9 284.88-20.5 282.88-17.1 280.73-14.95L280.73-14.95Q287.88-6.4 287.88-4.8L287.88-4.8Q287.88-3.3 283.33-1.15 278.78 1 276.93 1L276.93 1Q276.03 1 275.03-1.18 274.03-3.35 272.88-7.7L272.88-7.7 271.58-6.15 271.58-1.2Z" opacity="1" transform="matrix(1,0,0,1,0,0)" fill="#000000" class="wordmark-text-0" data-fill-palette-color="primary" id="text-0"></path></svg></g></svg></g></svg></g></svg></g><g transform="matrix(1,0,0,1,143.64254429858553,0)"><svg viewBox="0 0 110.21251140282892 76.34198882681564" height="76.34198882681564" width="110.21251140282892"><g><svg xmlns="http://www.w3.org/2000/svg" xmlns:xlink="http://www.w3.org/1999/xlink" version="1.1" x="8" y="0" viewBox="22.330999999999996 25.169 58.002 47.000000000000014" enable-background="new 0 0 100 100" xml:space="preserve" height="76.34198882681564" width="94.21251140282892" class="icon-icon-0" data-fill-palette-color="accent" id="icon-0"><path d="M65.083 25.169c-6.049 0-11.287 5.456-13.75 13.342-2.465-7.886-7.701-13.342-13.752-13.342-8.408 0-15.25 10.542-15.25 23.5s6.842 23.5 15.25 23.5c6.051 0 11.287-5.456 13.752-13.342 2.463 7.886 7.701 13.342 13.75 13.342 8.408 0 15.25-10.542 15.25-23.5S73.491 25.169 65.083 25.169zM37.581 69.169c-4.363 0-8.191-3.852-10.363-9.619 1.734 2.406 4.057 3.869 6.652 3.869 5.484 0 9.781-6.479 9.781-14.75s-4.297-14.75-9.781-14.75c-2.596 0-4.918 1.463-6.652 3.869 2.172-5.768 6-9.619 10.363-9.619 6.756 0 12.252 9.196 12.252 20.5S44.336 69.169 37.581 69.169zM27.088 48.669c0-6.369 3.105-11.75 6.781-11.75s6.781 5.381 6.781 11.75-3.105 11.75-6.781 11.75S27.088 55.038 27.088 48.669zM65.083 69.169c-4.152 0-7.824-3.483-10.041-8.788 1.646 1.905 3.717 3.038 5.998 3.038 5.484 0 9.781-6.479 9.781-14.75s-4.297-14.75-9.781-14.75c-2.281 0-4.352 1.133-5.998 3.038 2.217-5.305 5.889-8.788 10.041-8.788 6.754 0 12.25 9.196 12.25 20.5S71.836 69.169 65.083 69.169zM54.258 48.669c0-6.369 3.105-11.75 6.781-11.75s6.781 5.381 6.781 11.75-3.105 11.75-6.781 11.75S54.258 55.038 54.258 48.669z" fill="#d2d6dc" data-fill-palette-color="accent"></path></svg></g></svg></g><g><rect width="67.10942429858554" height="4.981620359865921" y="70.36036846694972" x="253.85505570141447" fill="#61777f" data-fill-palette-color="secondary"></rect><rect width="67.10942429858554" height="4.981620359865921" y="70.36036846694972" x="76.53312" fill="#61777f" data-fill-palette-color="secondary"></rect></g></svg></g><defs></defs></svg><rect width="395.52" height="161.83643247681147" fill="none" stroke="none" visibility="hidden"></rect></g></svg></g></svg>